<svg width="104" height="67" viewBox="0 0 104 67" fill="none" xmlns="http://www.w3.org/2000/svg">
<path d="M55.723 52L53.2259 43.2727H55.2415L56.6861 49.3366H56.7585L58.3523 43.2727H60.0781L61.6676 49.3494H61.7443L63.1889 43.2727H65.2045L62.7074 52H60.9091L59.2472 46.294H59.179L57.5213 52H55.723ZM68.4379 52.1278C67.7646 52.1278 67.185 51.9915 66.6992 51.7188C66.2163 51.4432 65.8441 51.054 65.5827 50.5511C65.3214 50.0455 65.1907 49.4474 65.1907 48.7571C65.1907 48.0838 65.3214 47.4929 65.5827 46.9844C65.8441 46.4759 66.212 46.0795 66.6864 45.7955C67.1637 45.5114 67.7234 45.3693 68.3654 45.3693C68.7972 45.3693 69.1992 45.4389 69.5714 45.5781C69.9464 45.7145 70.2731 45.9205 70.5515 46.196C70.8327 46.4716 71.0515 46.8182 71.2077 47.2358C71.364 47.6506 71.4421 48.1364 71.4421 48.6932V49.1918H65.9151V48.0668H69.7333C69.7333 47.8054 69.6765 47.5739 69.5629 47.3722C69.4492 47.1705 69.2915 47.0128 69.0898 46.8991C68.891 46.7827 68.6594 46.7244 68.3952 46.7244C68.1197 46.7244 67.8754 46.7884 67.6623 46.9162C67.4521 47.0412 67.2873 47.2102 67.168 47.4233C67.0487 47.6335 66.9876 47.8679 66.9847 48.1264V49.196C66.9847 49.5199 67.0444 49.7997 67.1637 50.0355C67.2859 50.2713 67.4577 50.4531 67.6793 50.581C67.9009 50.7088 68.1637 50.7727 68.4677 50.7727C68.6694 50.7727 68.854 50.7443 69.0217 50.6875C69.1893 50.6307 69.3327 50.5455 69.4521 50.4318C69.5714 50.3182 69.6623 50.179 69.7248 50.0142L71.4038 50.125C71.3185 50.5284 71.1438 50.8807 70.8796 51.1818C70.6183 51.4801 70.2802 51.7131 69.8654 51.8807C69.4535 52.0455 68.9776 52.1278 68.4379 52.1278ZM74.4933 52.1236C74.0756 52.1236 73.7035 52.0511 73.3768 51.9062C73.0501 51.7585 72.7915 51.5412 72.6012 51.2543C72.4137 50.9645 72.32 50.6037 72.32 50.1719C72.32 49.8082 72.3867 49.5028 72.5202 49.2557C72.6538 49.0085 72.8356 48.8097 73.0657 48.6591C73.2958 48.5085 73.5572 48.3949 73.8498 48.3182C74.1452 48.2415 74.4549 48.1875 74.7788 48.1562C75.1594 48.1165 75.4663 48.0795 75.6992 48.0455C75.9322 48.0085 76.1012 47.9545 76.2063 47.8835C76.3114 47.8125 76.364 47.7074 76.364 47.5682V47.5426C76.364 47.2727 76.2788 47.0639 76.1083 46.9162C75.9407 46.7685 75.7021 46.6946 75.3924 46.6946C75.0657 46.6946 74.8058 46.767 74.6126 46.9119C74.4194 47.054 74.2915 47.233 74.229 47.4489L72.5501 47.3125C72.6353 46.9148 72.8029 46.571 73.0529 46.2812C73.3029 45.9886 73.6254 45.7642 74.0202 45.608C74.418 45.4489 74.8782 45.3693 75.4009 45.3693C75.7646 45.3693 76.1126 45.4119 76.445 45.4972C76.7802 45.5824 77.0771 45.7145 77.3356 45.8935C77.5969 46.0724 77.8029 46.3026 77.9535 46.5838C78.104 46.8622 78.1793 47.196 78.1793 47.5852V52H76.4577V51.0923H76.4066C76.3015 51.2969 76.1609 51.4773 75.9847 51.6335C75.8086 51.7869 75.5969 51.9077 75.3498 51.9957C75.1026 52.081 74.8171 52.1236 74.4933 52.1236ZM75.0131 50.8707C75.2802 50.8707 75.516 50.8182 75.7205 50.7131C75.9251 50.6051 76.0856 50.4602 76.2021 50.2784C76.3185 50.0966 76.3768 49.8906 76.3768 49.6605V48.9659C76.32 49.0028 76.2418 49.0369 76.1424 49.0682C76.0458 49.0966 75.9364 49.1236 75.8143 49.1491C75.6921 49.1719 75.57 49.1932 75.4478 49.2131C75.3256 49.2301 75.2148 49.2457 75.1154 49.2599C74.9023 49.2912 74.7163 49.3409 74.5572 49.4091C74.3981 49.4773 74.2745 49.5696 74.1864 49.6861C74.0984 49.7997 74.0543 49.9418 74.0543 50.1122C74.0543 50.3594 74.1438 50.5483 74.3228 50.679C74.5046 50.8068 74.7347 50.8707 75.0131 50.8707ZM83.0692 45.4545V46.8182H79.1275V45.4545H83.0692ZM80.0224 43.8864H81.8377V49.9886C81.8377 50.1562 81.8633 50.2869 81.9144 50.3807C81.9656 50.4716 82.0366 50.5355 82.1275 50.5724C82.2212 50.6094 82.3292 50.6278 82.4513 50.6278C82.5366 50.6278 82.6218 50.6207 82.707 50.6065C82.7923 50.5895 82.8576 50.5767 82.9031 50.5682L83.1886 51.919C83.0977 51.9474 82.9698 51.9801 82.805 52.017C82.6403 52.0568 82.44 52.081 82.2042 52.0895C81.7667 52.1065 81.3832 52.0483 81.0536 51.9148C80.7269 51.7812 80.4727 51.5739 80.2908 51.2926C80.109 51.0114 80.0195 50.6562 80.0224 50.2273V43.8864ZM86.2077 48.2159V52H84.3924V43.2727H86.1566V46.6094H86.2333C86.381 46.223 86.6197 45.9205 86.9492 45.7017C87.2788 45.4801 87.6921 45.3693 88.1893 45.3693C88.6438 45.3693 89.0401 45.4688 89.3782 45.6676C89.7191 45.8636 89.9833 46.1463 90.1708 46.5156C90.3612 46.8821 90.4549 47.321 90.4521 47.8324V52H88.6367V48.1562C88.6396 47.7528 88.5373 47.4389 88.3299 47.2145C88.1254 46.9901 87.8384 46.8778 87.4691 46.8778C87.2219 46.8778 87.0032 46.9304 86.8129 47.0355C86.6254 47.1406 86.4776 47.294 86.3697 47.4957C86.2646 47.6946 86.2106 47.9347 86.2077 48.2159ZM94.8636 52.1278C94.1903 52.1278 93.6108 51.9915 93.125 51.7188C92.642 51.4432 92.2699 51.054 92.0085 50.5511C91.7472 50.0455 91.6165 49.4474 91.6165 48.7571C91.6165 48.0838 91.7472 47.4929 92.0085 46.9844C92.2699 46.4759 92.6378 46.0795 93.1122 45.7955C93.5895 45.5114 94.1491 45.3693 94.7912 45.3693C95.223 45.3693 95.625 45.4389 95.9972 45.5781C96.3722 45.7145 96.6989 45.9205 96.9773 46.196C97.2585 46.4716 97.4773 46.8182 97.6335 47.2358C97.7898 47.6506 97.8679 48.1364 97.8679 48.6932V49.1918H92.3409V48.0668H96.1591C96.1591 47.8054 96.1023 47.5739 95.9886 47.3722C95.875 47.1705 95.7173 47.0128 95.5156 46.8991C95.3168 46.7827 95.0852 46.7244 94.821 46.7244C94.5455 46.7244 94.3011 46.7884 94.0881 46.9162C93.8778 47.0412 93.7131 47.2102 93.5938 47.4233C93.4744 47.6335 93.4134 47.8679 93.4105 48.1264V49.196C93.4105 49.5199 93.4702 49.7997 93.5895 50.0355C93.7116 50.2713 93.8835 50.4531 94.1051 50.581C94.3267 50.7088 94.5895 50.7727 94.8935 50.7727C95.0952 50.7727 95.2798 50.7443 95.4474 50.6875C95.6151 50.6307 95.7585 50.5455 95.8778 50.4318C95.9972 50.3182 96.0881 50.179 96.1506 50.0142L97.8295 50.125C97.7443 50.5284 97.5696 50.8807 97.3054 51.1818C97.044 51.4801 96.706 51.7131 96.2912 51.8807C95.8793 52.0455 95.4034 52.1278 94.8636 52.1278ZM99.0526 52V45.4545H100.812V46.5966H100.881C101 46.1903 101.2 45.8835 101.482 45.6761C101.763 45.4659 102.087 45.3608 102.453 45.3608C102.544 45.3608 102.642 45.3665 102.747 45.3778C102.852 45.3892 102.945 45.4048 103.024 45.4247V47.0355C102.939 47.0099 102.821 46.9872 102.67 46.9673C102.52 46.9474 102.382 46.9375 102.257 46.9375C101.99 46.9375 101.751 46.9957 101.541 47.1122C101.334 47.2259 101.169 47.3849 101.047 47.5895C100.928 47.794 100.868 48.0298 100.868 48.2969V52H99.0526Z" fill="white"/>
<path d="M47.723 64L45.2259 55.2727H47.2415L48.6861 61.3366H48.7585L50.3523 55.2727H52.0781L53.6676 61.3494H53.7443L55.1889 55.2727H57.2045L54.7074 64H52.9091L51.2472 58.294H51.179L49.5213 64H47.723ZM59.3214 64.1236C58.9038 64.1236 58.5316 64.0511 58.2049 63.9062C57.8782 63.7585 57.6197 63.5412 57.4293 63.2543C57.2418 62.9645 57.1481 62.6037 57.1481 62.1719C57.1481 61.8082 57.2148 61.5028 57.3484 61.2557C57.4819 61.0085 57.6637 60.8097 57.8938 60.6591C58.1239 60.5085 58.3853 60.3949 58.6779 60.3182C58.9734 60.2415 59.283 60.1875 59.6069 60.1562C59.9876 60.1165 60.2944 60.0795 60.5273 60.0455C60.7603 60.0085 60.9293 59.9545 61.0344 59.8835C61.1396 59.8125 61.1921 59.7074 61.1921 59.5682V59.5426C61.1921 59.2727 61.1069 59.0639 60.9364 58.9162C60.7688 58.7685 60.5302 58.6946 60.2205 58.6946C59.8938 58.6946 59.6339 58.767 59.4407 58.9119C59.2475 59.054 59.1197 59.233 59.0572 59.4489L57.3782 59.3125C57.4634 58.9148 57.631 58.571 57.881 58.2812C58.131 57.9886 58.4535 57.7642 58.8484 57.608C59.2461 57.4489 59.7063 57.3693 60.229 57.3693C60.5927 57.3693 60.9407 57.4119 61.2731 57.4972C61.6083 57.5824 61.9052 57.7145 62.1637 57.8935C62.4251 58.0724 62.631 58.3026 62.7816 58.5838C62.9322 58.8622 63.0075 59.196 63.0075 59.5852V64H61.2859V63.0923H61.2347C61.1296 63.2969 60.989 63.4773 60.8129 63.6335C60.6367 63.7869 60.4251 63.9077 60.1779 63.9957C59.9308 64.081 59.6452 64.1236 59.3214 64.1236ZM59.8413 62.8707C60.1083 62.8707 60.3441 62.8182 60.5487 62.7131C60.7532 62.6051 60.9137 62.4602 61.0302 62.2784C61.1467 62.0966 61.2049 61.8906 61.2049 61.6605V60.9659C61.1481 61.0028 61.07 61.0369 60.9705 61.0682C60.8739 61.0966 60.7646 61.1236 60.6424 61.1491C60.5202 61.1719 60.3981 61.1932 60.2759 61.2131C60.1538 61.2301 60.043 61.2457 59.9435 61.2599C59.7305 61.2912 59.5444 61.3409 59.3853 61.4091C59.2262 61.4773 59.1026 61.5696 59.0146 61.6861C58.9265 61.7997 58.8825 61.9418 58.8825 62.1122C58.8825 62.3594 58.9719 62.5483 59.1509 62.679C59.3327 62.8068 59.5629 62.8707 59.8413 62.8707ZM67.8974 57.4545V58.8182H63.9556V57.4545H67.8974ZM64.8505 55.8864H66.6658V61.9886C66.6658 62.1562 66.6914 62.2869 66.7425 62.3807C66.7937 62.4716 66.8647 62.5355 66.9556 62.5724C67.0494 62.6094 67.1573 62.6278 67.2795 62.6278C67.3647 62.6278 67.4499 62.6207 67.5352 62.6065C67.6204 62.5895 67.6857 62.5767 67.7312 62.5682L68.0167 63.919C67.9258 63.9474 67.7979 63.9801 67.6332 64.017C67.4684 64.0568 67.2681 64.081 67.0323 64.0895C66.5948 64.1065 66.2113 64.0483 65.8817 63.9148C65.555 63.7812 65.3008 63.5739 65.119 63.2926C64.9371 63.0114 64.8477 62.6562 64.8505 62.2273V55.8864ZM71.967 64.1278C71.2965 64.1278 70.7198 63.9858 70.2369 63.7017C69.7567 63.4148 69.3874 63.017 69.1289 62.5085C68.8732 62 68.7454 61.4148 68.7454 60.7528C68.7454 60.0824 68.8746 59.4943 69.1332 58.9886C69.3945 58.4801 69.7653 58.0838 70.2454 57.7997C70.7255 57.5128 71.2965 57.3693 71.9585 57.3693C72.5295 57.3693 73.0295 57.473 73.4585 57.6804C73.8874 57.8878 74.2269 58.179 74.4769 58.554C74.7269 58.929 74.8647 59.3693 74.8903 59.875H73.1772C73.1289 59.5483 73.0011 59.2855 72.7937 59.0866C72.5891 58.8849 72.3207 58.7841 71.9883 58.7841C71.707 58.7841 71.4613 58.8608 71.2511 59.0142C71.0437 59.1648 70.8817 59.3849 70.7653 59.6747C70.6488 59.9645 70.5906 60.3153 70.5906 60.7273C70.5906 61.1449 70.6474 61.5 70.761 61.7926C70.8775 62.0852 71.0408 62.3082 71.2511 62.4616C71.4613 62.6151 71.707 62.6918 71.9883 62.6918C72.1957 62.6918 72.3817 62.6491 72.5465 62.5639C72.7141 62.4787 72.8519 62.3551 72.9599 62.1932C73.0707 62.0284 73.1431 61.831 73.1772 61.6009H74.8903C74.8619 62.1009 74.7255 62.5412 74.4812 62.9219C74.2397 63.2997 73.9059 63.5952 73.4798 63.8082C73.0536 64.0213 72.5494 64.1278 71.967 64.1278ZM77.8679 60.2159V64H76.0526V55.2727H77.8168V58.6094H77.8935C78.0412 58.223 78.2798 57.9205 78.6094 57.7017C78.9389 57.4801 79.3523 57.3693 79.8494 57.3693C80.304 57.3693 80.7003 57.4688 81.0384 57.6676C81.3793 57.8636 81.6435 58.1463 81.831 58.5156C82.0213 58.8821 82.1151 59.321 82.1122 59.8324V64H80.2969V60.1562C80.2997 59.7528 80.1974 59.4389 79.9901 59.2145C79.7855 58.9901 79.4986 58.8778 79.1293 58.8778C78.8821 58.8778 78.6634 58.9304 78.473 59.0355C78.2855 59.1406 78.1378 59.294 78.0298 59.4957C77.9247 59.6946 77.8707 59.9347 77.8679 60.2159ZM86.5238 64.1278C85.8505 64.1278 85.271 63.9915 84.7852 63.7188C84.3022 63.4432 83.93 63.054 83.6687 62.5511C83.4073 62.0455 83.2766 61.4474 83.2766 60.7571C83.2766 60.0838 83.4073 59.4929 83.6687 58.9844C83.93 58.4759 84.2979 58.0795 84.7724 57.7955C85.2496 57.5114 85.8093 57.3693 86.4513 57.3693C86.8832 57.3693 87.2852 57.4389 87.6573 57.5781C88.0323 57.7145 88.359 57.9205 88.6374 58.196C88.9187 58.4716 89.1374 58.8182 89.2937 59.2358C89.4499 59.6506 89.5281 60.1364 89.5281 60.6932V61.1918H84.0011V60.0668H87.8192C87.8192 59.8054 87.7624 59.5739 87.6488 59.3722C87.5352 59.1705 87.3775 59.0128 87.1758 58.8991C86.9769 58.7827 86.7454 58.7244 86.4812 58.7244C86.2056 58.7244 85.9613 58.7884 85.7482 58.9162C85.538 59.0412 85.3732 59.2102 85.2539 59.4233C85.1346 59.6335 85.0735 59.8679 85.0707 60.1264V61.196C85.0707 61.5199 85.1303 61.7997 85.2496 62.0355C85.3718 62.2713 85.5437 62.4531 85.7653 62.581C85.9869 62.7088 86.2496 62.7727 86.5536 62.7727C86.7553 62.7727 86.94 62.7443 87.1076 62.6875C87.2752 62.6307 87.4187 62.5455 87.538 62.4318C87.6573 62.3182 87.7482 62.179 87.8107 62.0142L89.4897 62.125C89.4045 62.5284 89.2298 62.8807 88.9656 63.1818C88.7042 63.4801 88.3661 63.7131 87.9513 63.8807C87.5394 64.0455 87.0636 64.1278 86.5238 64.1278ZM90.7127 64V57.4545H92.4727V58.5966H92.5408C92.6602 58.1903 92.8604 57.8835 93.1417 57.6761C93.4229 57.4659 93.7468 57.3608 94.1133 57.3608C94.2042 57.3608 94.3022 57.3665 94.4073 57.3778C94.5124 57.3892 94.6048 57.4048 94.6843 57.4247V59.0355C94.5991 59.0099 94.4812 58.9872 94.3306 58.9673C94.18 58.9474 94.0423 58.9375 93.9173 58.9375C93.6502 58.9375 93.4116 58.9957 93.2013 59.1122C92.994 59.2259 92.8292 59.3849 92.707 59.5895C92.5877 59.794 92.5281 60.0298 92.5281 60.2969V64H90.7127Z" fill="white"/>
<path d="M44 32C44 38.6274 38.6274 44 32 44C25.3726 44 20 38.6274 20 32C20 25.3726 25.3726 20 32 20C38.6274 20 44 25.3726 44 32Z" fill="white" stroke="white"/>
<line x1="49" y1="32" x2="64" y2="32" stroke="white" stroke-width="2"/>
<line y1="32" x2="15" y2="32" stroke="white" stroke-width="2"/>
<line x1="32" y1="15" x2="32" stroke="white" stroke-width="2"/>
<line x1="32" y1="64" x2="32" y2="49" stroke="white" stroke-width="2"/>
<line x1="44.2929" y1="19.8995" x2="54.8995" y2="9.29289" stroke="white" stroke-width="2"/>
<line x1="9.29289" y1="54.8995" x2="19.8995" y2="44.2929" stroke="white" stroke-width="2"/>
<line x1="43.7071" y1="44.2929" x2="50.7782" y2="51.364" stroke="white" stroke-width="2"/>
<line x1="8.70711" y1="9.29289" x2="19.3137" y2="19.8995" stroke="white" stroke-width="2"/>
</svg>
